<svg width="24" height="24" viewBox="0 0 24 24" fill="none" xmlns="http://www.w3.org/2000/svg">
<path d="M10.5141 11.4713C11.0674 11.0386 11.4719 10.4441 11.6713 9.77069C11.8707 9.09722 11.8551 8.37832 11.6265 7.71419C11.3979 7.05006 10.9679 6.47378 10.3962 6.06568C9.82458 5.65757 9.13986 5.43798 8.4375 5.4375H3C2.85082 5.4375 2.70774 5.49676 2.60225 5.60225C2.49676 5.70774 2.4375 5.85082 2.4375 6V18C2.4375 18.1492 2.49676 18.2923 2.60225 18.3977C2.70774 18.5032 2.85082 18.5625 3 18.5625H8.8125C9.65474 18.5623 10.4724 18.2786 11.1337 17.757C11.795 17.2355 12.2615 16.5065 12.458 15.6875C12.6546 14.8685 12.5697 14.0072 12.217 13.2423C11.8644 12.4775 11.2645 11.8536 10.5141 11.4713ZM3.5625 6.5625H8.4375C9.03424 6.5625 9.60653 6.79955 10.0285 7.22151C10.4504 7.64347 10.6875 8.21576 10.6875 8.8125C10.6875 9.40924 10.4504 9.98153 10.0285 10.4035C9.60653 10.8254 9.03424 11.0625 8.4375 11.0625H3.5625V6.5625ZM8.8125 17.4375H3.5625V12.1875H8.8125C9.50869 12.1875 10.1764 12.4641 10.6687 12.9563C11.1609 13.4486 11.4375 14.1163 11.4375 14.8125C11.4375 15.5087 11.1609 16.1764 10.6687 16.6687C10.1764 17.1609 9.50869 17.4375 8.8125 17.4375ZM15.1875 7.5C15.1875 7.35082 15.2468 7.20774 15.3523 7.10225C15.4577 6.99676 15.6008 6.9375 15.75 6.9375H21.75C21.8992 6.9375 22.0423 6.99676 22.1477 7.10225C22.2532 7.20774 22.3125 7.35082 22.3125 7.5C22.3125 7.64918 22.2532 7.79226 22.1477 7.89775C22.0423 8.00324 21.8992 8.0625 21.75 8.0625H15.75C15.6008 8.0625 15.4577 8.00324 15.3523 7.89775C15.2468 7.79226 15.1875 7.64918 15.1875 7.5ZM18.75 9.9375C18.015 9.93762 17.2922 10.1256 16.6503 10.4836C16.0083 10.8416 15.4685 11.3577 15.0821 11.983C14.6958 12.6082 14.4756 13.3219 14.4426 14.0562C14.4095 14.7904 14.5647 15.521 14.8934 16.1784C15.2221 16.8358 15.7133 17.3984 16.3205 17.8126C16.9277 18.2268 17.6307 18.4789 18.3627 18.545C19.0947 18.6111 19.8315 18.4891 20.5031 18.1904C21.1747 17.8917 21.7588 17.4263 22.2 16.8384C22.2896 16.7191 22.3282 16.569 22.3072 16.4213C22.2862 16.2735 22.2073 16.1401 22.088 16.0505C21.9686 15.9608 21.8186 15.9223 21.6708 15.9433C21.523 15.9643 21.3896 16.0432 21.3 16.1625C20.9276 16.6592 20.4181 17.0364 19.8343 17.2477C19.2505 17.4589 18.6177 17.4951 18.0136 17.3517C17.4095 17.2083 16.8605 16.8916 16.4339 16.4406C16.0073 15.9895 15.7217 15.4236 15.6122 14.8125H22.5C22.6492 14.8125 22.7923 14.7532 22.8977 14.6477C23.0032 14.5423 23.0625 14.3992 23.0625 14.25C23.061 13.1067 22.6062 12.0107 21.7978 11.2022C20.9893 10.3938 19.8933 9.93899 18.75 9.9375ZM15.6122 13.6875C15.7438 12.951 16.1302 12.2843 16.7039 11.804C17.2775 11.3238 18.0019 11.0606 18.75 11.0606C19.4981 11.0606 20.2225 11.3238 20.7961 11.804C21.3698 12.2843 21.7562 12.951 21.8878 13.6875H15.6122Z" fill="white"/>
</svg>
