<svg width="1245" height="259" viewBox="0 0 1245 259" fill="none" xmlns="http://www.w3.org/2000/svg">
<mask id="path-1-outside-1_917_865" maskUnits="userSpaceOnUse" x="0" y="0" width="1245" height="259" fill="black">
<rect fill="white" width="1245" height="259"/>
<path d="M2 5.54166H41.0022V218.042H105.179V253.458H2V5.54166Z"/>
<path d="M134.519 5.54166H240.889V40.9583H173.521V106.479H227.061V141.896H173.521V218.042H240.889V253.458H134.519V5.54166Z"/>
<path d="M304.456 40.9583H263.681V5.54166H384.233V40.9583H343.458V253.458H304.456V40.9583Z"/>
<path d="M429.98 43.0833H417.216V5.54166H454.8V39.1875L433.171 85.5833H415.089L429.98 43.0833Z"/>
<path d="M545.383 257C526.473 257 512.172 251.688 502.481 241.062C492.789 230.201 487.944 214.736 487.944 194.667V180.5H524.818V197.5C524.818 213.556 531.555 221.583 545.029 221.583C551.647 221.583 556.611 219.694 559.92 215.917C563.466 211.903 565.239 205.528 565.239 196.792C565.239 186.403 562.875 177.312 558.148 169.521C553.42 161.493 544.674 151.931 531.91 140.833C515.836 126.667 504.608 113.917 498.226 102.583C491.844 91.0139 488.653 78.0278 488.653 63.625C488.653 44.0278 493.617 28.9167 503.544 18.2917C513.472 7.43056 527.891 2 546.802 2C565.475 2 579.54 7.43056 588.995 18.2917C598.686 28.9167 603.532 44.2639 603.532 64.3333V74.6042H566.657V61.8542C566.657 53.3542 565.003 47.2153 561.693 43.4375C558.384 39.4236 553.538 37.4167 547.156 37.4167C534.155 37.4167 527.655 45.3264 527.655 61.1458C527.655 70.1181 530.019 78.5 534.746 86.2917C539.71 94.0833 548.574 103.528 561.339 114.625C577.649 128.792 588.877 141.66 595.023 153.229C601.168 164.799 604.241 178.375 604.241 193.958C604.241 214.264 599.159 229.847 588.995 240.708C579.067 251.569 564.53 257 545.383 257Z"/>
<path d="M735.156 40.9583H694.381V5.54166H814.934V40.9583H774.159V253.458H735.156V40.9583Z"/>
<path d="M858.318 5.54166H911.148L951.569 253.458H912.567L905.475 204.229V204.938H861.155L854.063 253.458H817.898L858.318 5.54166ZM900.866 171.292L883.492 48.75H882.783L865.764 171.292H900.866Z"/>
<path d="M981.128 5.54166H1020.13V218.042H1084.31V253.458H981.128V5.54166Z"/>
<path d="M1113.65 5.54166H1152.65V110.021L1202.29 5.54166H1241.29L1194.84 96.5625L1242 253.458H1201.22L1168.25 142.958L1152.65 174.479V253.458H1113.65V5.54166Z"/>
</mask>
<path d="M2 5.54166H41.0022V218.042H105.179V253.458H2V5.54166Z" stroke="#2C4661" stroke-width="4" mask="url(#path-1-outside-1_917_865)"/>
<path d="M134.519 5.54166H240.889V40.9583H173.521V106.479H227.061V141.896H173.521V218.042H240.889V253.458H134.519V5.54166Z" stroke="#2C4661" stroke-width="4" mask="url(#path-1-outside-1_917_865)"/>
<path d="M304.456 40.9583H263.681V5.54166H384.233V40.9583H343.458V253.458H304.456V40.9583Z" stroke="#2C4661" stroke-width="4" mask="url(#path-1-outside-1_917_865)"/>
<path d="M429.98 43.0833H417.216V5.54166H454.8V39.1875L433.171 85.5833H415.089L429.98 43.0833Z" stroke="#2C4661" stroke-width="4" mask="url(#path-1-outside-1_917_865)"/>
<path d="M545.383 257C526.473 257 512.172 251.688 502.481 241.062C492.789 230.201 487.944 214.736 487.944 194.667V180.5H524.818V197.5C524.818 213.556 531.555 221.583 545.029 221.583C551.647 221.583 556.611 219.694 559.92 215.917C563.466 211.903 565.239 205.528 565.239 196.792C565.239 186.403 562.875 177.312 558.148 169.521C553.42 161.493 544.674 151.931 531.91 140.833C515.836 126.667 504.608 113.917 498.226 102.583C491.844 91.0139 488.653 78.0278 488.653 63.625C488.653 44.0278 493.617 28.9167 503.544 18.2917C513.472 7.43056 527.891 2 546.802 2C565.475 2 579.54 7.43056 588.995 18.2917C598.686 28.9167 603.532 44.2639 603.532 64.3333V74.6042H566.657V61.8542C566.657 53.3542 565.003 47.2153 561.693 43.4375C558.384 39.4236 553.538 37.4167 547.156 37.4167C534.155 37.4167 527.655 45.3264 527.655 61.1458C527.655 70.1181 530.019 78.5 534.746 86.2917C539.71 94.0833 548.574 103.528 561.339 114.625C577.649 128.792 588.877 141.66 595.023 153.229C601.168 164.799 604.241 178.375 604.241 193.958C604.241 214.264 599.159 229.847 588.995 240.708C579.067 251.569 564.53 257 545.383 257Z" stroke="#2C4661" stroke-width="4" mask="url(#path-1-outside-1_917_865)"/>
<path d="M735.156 40.9583H694.381V5.54166H814.934V40.9583H774.159V253.458H735.156V40.9583Z" stroke="#2C4661" stroke-width="4" mask="url(#path-1-outside-1_917_865)"/>
<path d="M858.318 5.54166H911.148L951.569 253.458H912.567L905.475 204.229V204.938H861.155L854.063 253.458H817.898L858.318 5.54166ZM900.866 171.292L883.492 48.75H882.783L865.764 171.292H900.866Z" stroke="#2C4661" stroke-width="4" mask="url(#path-1-outside-1_917_865)"/>
<path d="M981.128 5.54166H1020.13V218.042H1084.31V253.458H981.128V5.54166Z" stroke="#2C4661" stroke-width="4" mask="url(#path-1-outside-1_917_865)"/>
<path d="M1113.65 5.54166H1152.65V110.021L1202.29 5.54166H1241.29L1194.84 96.5625L1242 253.458H1201.22L1168.25 142.958L1152.65 174.479V253.458H1113.65V5.54166Z" stroke="#2C4661" stroke-width="4" mask="url(#path-1-outside-1_917_865)"/>
</svg>
