<svg width="1128" height="232" viewBox="0 0 1128 232" fill="none" xmlns="http://www.w3.org/2000/svg">
<path d="M0 3.22222H35.4795V196.556H93.8593V228.778H0V3.22222Z" fill="white"/>
<path d="M120.55 3.22222H217.312V35.4444H156.029V95.0556H204.733V127.278H156.029V196.556H217.312V228.778H120.55V3.22222Z" fill="white"/>
<path d="M275.137 35.4444H238.045V3.22222H347.709V35.4444H310.617V228.778H275.137V35.4444Z" fill="white"/>
<path d="M389.324 37.3778H377.713V3.22222H411.902V33.8333L392.227 76.0444H375.777L389.324 37.3778Z" fill="white"/>
<path d="M494.303 232C477.101 232 464.092 227.167 455.276 217.5C446.46 207.619 442.052 193.548 442.052 175.289V162.4H475.596V177.867C475.596 192.474 481.724 199.778 493.981 199.778C500.002 199.778 504.517 198.059 507.528 194.622C510.753 190.97 512.366 185.17 512.366 177.222C512.366 167.77 510.216 159.5 505.915 152.411C501.614 145.107 493.658 136.407 482.047 126.311C467.425 113.422 457.211 101.822 451.406 91.5111C445.6 80.9852 442.697 69.1704 442.697 56.0667C442.697 38.237 447.213 24.4889 456.244 14.8222C465.275 4.94074 478.392 0 495.594 0C512.581 0 525.375 4.94074 533.976 14.8222C542.792 24.4889 547.2 38.4519 547.2 56.7111V66.0556H513.656V54.4556C513.656 46.7222 512.151 41.137 509.14 37.7C506.13 34.0481 501.722 32.2222 495.916 32.2222C484.09 32.2222 478.176 39.4185 478.176 53.8111C478.176 61.9741 480.327 69.6 484.627 76.6889C489.143 83.7778 497.206 92.3704 508.818 102.467C523.655 115.356 533.868 127.063 539.459 137.589C545.05 148.115 547.845 160.467 547.845 174.644C547.845 193.119 543.222 207.296 533.976 217.178C524.945 227.059 511.721 232 494.303 232Z" fill="white"/>
<path d="M666.936 35.4444H629.844V3.22222H739.507V35.4444H702.415V228.778H666.936V35.4444Z" fill="white"/>
<path d="M778.973 3.22222H827.032L863.801 228.778H828.322L821.871 183.989V184.633H781.554L775.103 228.778H742.204L778.973 3.22222ZM817.678 154.022L801.874 42.5333H801.229L785.747 154.022H817.678Z" fill="white"/>
<path d="M890.691 3.22222H926.17V196.556H984.55V228.778H890.691V3.22222Z" fill="white"/>
<path d="M1011.24 3.22222H1046.72V98.2778L1091.88 3.22222H1127.35L1085.1 86.0333L1128 228.778H1090.91L1060.91 128.244L1046.72 156.922V228.778H1011.24V3.22222Z" fill="white"/>
</svg>
